<svg width="375" height="100" viewBox="0 0 375 100" fill="none" xmlns="http://www.w3.org/2000/svg">
<path d="M62.3886 5C61.6469 5 60.9634 5.40179 60.5852 6.07143L36.1532 48.9286C35.8623 49.4196 35.7896 50.0149 35.935 50.5655C36.0805 51.1161 36.444 51.5923 36.9385 51.875L44.7335 56.3244C45.7369 56.9048 47.0167 56.5327 47.5694 55.5059C48.1365 54.4643 47.773 53.1696 46.7695 52.5893L40.836 49.1964L60.2944 15.0744V55.4018C60.2944 56.5923 61.2251 57.5446 62.3886 57.5446C63.552 57.5446 64.4827 56.5923 64.4827 55.4018V15.0744L83.9411 49.1964L78.0076 52.5893C76.9896 53.1696 76.6406 54.4643 77.2078 55.5059C77.5859 56.2054 78.2985 56.6071 79.0256 56.6071C79.3747 56.6071 79.7237 56.5179 80.0436 56.3244L87.8532 51.875C88.3331 51.5923 88.6967 51.1161 88.8421 50.5655C88.9875 50 88.9148 49.4196 88.6385 48.9286L64.2064 6.07143C63.8138 5.40179 63.1302 5 62.3886 5ZM34.1026 37.2619C33.9717 37.2768 33.8263 37.3066 33.6954 37.3512C31.3104 38.0804 29.1435 38.9137 27.2675 39.8214C26.2204 40.3274 25.7696 41.6071 26.264 42.6786C26.6276 43.4524 27.3838 43.8988 28.1691 43.8988C28.4745 43.8988 28.7654 43.8393 29.0562 43.6905C30.7578 42.872 32.7211 42.128 34.9025 41.4435C36.0077 41.1161 36.6331 39.9256 36.2986 38.7798C36.0077 37.7976 35.077 37.1726 34.1026 37.2619ZM90.6599 37.2619C89.7001 37.1726 88.7548 37.7976 88.464 38.7798C88.1295 39.9256 88.7548 41.1161 89.8746 41.4583C97.466 43.7946 102.178 47.0685 102.178 50C102.178 52.6935 98.0186 55.7887 91.3435 58.0655C83.6357 60.6994 73.3539 62.1429 62.3886 62.1429C51.4232 62.1429 41.1414 60.6994 33.4337 58.0655C26.7585 55.7887 22.5992 52.6935 22.5992 50C22.5992 48.8095 21.6685 47.8571 20.505 47.8571C19.3416 47.8571 18.4109 48.8095 18.4109 50C18.4109 60.6696 41.0687 66.4286 62.3886 66.4286C83.7084 66.4286 106.366 60.6696 106.366 50C106.366 44.881 100.942 40.3869 91.0817 37.3512C90.9363 37.3066 90.8054 37.2768 90.6599 37.2619ZM50.827 70.1935C50.4198 70.1637 50.0126 70.253 49.6344 70.4762C48.631 71.0714 48.2965 72.381 48.8782 73.4077L60.5852 93.9286C60.9634 94.5982 61.6469 95 62.3886 95C63.1302 95 63.8138 94.5982 64.1919 93.9286L75.8989 73.4077C76.4806 72.381 76.1461 71.0714 75.1427 70.4762C74.1538 69.881 72.8594 70.2232 72.2923 71.25L62.3886 88.6012L52.4994 71.25C52.1358 70.6101 51.4959 70.2381 50.827 70.1935Z" fill="white"/>
<path d="M134.947 42.5C133.914 42.5 133.114 42.1833 132.547 41.55C131.98 40.9167 131.697 40.1 131.697 39.1C131.697 38.0667 131.914 37.2667 132.347 36.7C131.28 35.7 129.814 35.2 127.947 35.2C125.214 35.2 123.147 36.35 121.747 38.65C120.347 40.9167 119.647 44.2667 119.647 48.7C119.647 57.6 122.414 62.05 127.947 62.05C129.28 62.05 130.63 61.7333 131.997 61.1C133.397 60.4333 134.58 59.5667 135.547 58.5C136.58 59.3333 137.247 60.65 137.547 62.45C134.58 64.65 131.38 65.75 127.947 65.75C123.58 65.75 120.414 64.4 118.447 61.7C116.514 59 115.547 54.8 115.547 49.1C115.547 37.8667 119.68 32.25 127.947 32.25C130.447 32.25 132.664 32.9167 134.597 34.25C136.564 35.55 137.547 37.25 137.547 39.35C137.547 41.45 136.68 42.5 134.947 42.5ZM152.053 47.55C153.02 48.45 154.237 48.9 155.703 48.9C157.203 48.9 158.42 48.2833 159.353 47.05C160.32 45.7833 160.803 44.1167 160.803 42.05C160.803 37.4167 158.603 35.1 154.203 35.1C152.703 35.1 151.137 35.4333 149.503 36.1C149.27 39 149.153 43.1167 149.153 48.45C149.153 53.7833 149.303 58.3333 149.603 62.1L151.453 62.25C151.52 62.9833 151.553 63.5 151.553 63.8C151.553 64.0667 151.503 64.4833 151.403 65.05C150.437 65.0167 149.02 65 147.153 65C145.287 65 144.003 65.0167 143.303 65.05C143.203 64.55 143.153 64.0833 143.153 63.65C143.153 63.1833 143.187 62.7167 143.253 62.25L145.003 62.1C145.27 58.4333 145.403 53.8333 145.403 48.3C145.403 42.7667 145.237 38.6833 144.903 36.05L143.003 35.9C142.903 35.5 142.853 34.9833 142.853 34.35C142.853 33.7167 142.87 33.3 142.903 33.1C145.137 33.0333 147.103 32.8833 148.803 32.65C150.503 32.3833 152.32 32.25 154.253 32.25C161.52 32.25 165.153 35.5167 165.153 42.05C165.153 44.6833 164.503 46.85 163.203 48.55C161.903 50.25 160.087 51.3167 157.753 51.75C161.053 56.9833 163.337 60.35 164.603 61.85L166.953 62C167.02 62.5333 167.053 63.0333 167.053 63.5C167.053 63.9333 167.003 64.4 166.903 64.9C163.87 65 161.753 65.0833 160.553 65.15L160.353 64.6C159.787 63.2 159.087 61.75 158.253 60.25C157.453 58.7167 155.753 55.9167 153.153 51.85C152.453 51.8167 151.737 51.6333 151.003 51.3C151.003 50.6333 151.103 49.9167 151.303 49.15C151.537 48.35 151.787 47.8167 152.053 47.55ZM184.226 35.65C184.159 35.1167 184.126 34.6667 184.126 34.3C184.126 33.9 184.176 33.4167 184.276 32.85C185.343 32.8833 186.659 32.9 188.226 32.9C189.826 32.9 191.209 32.8833 192.376 32.85C192.476 33.4167 192.526 33.95 192.526 34.45C192.526 34.9167 192.493 35.3167 192.426 35.65L190.676 35.8C186.109 45.6333 183.409 52.1333 182.576 55.3C182.676 57.8333 182.809 60.1 182.976 62.1L184.776 62.25C184.843 62.7833 184.876 63.25 184.876 63.65C184.876 64.0167 184.826 64.4833 184.726 65.05C183.559 65.0167 182.209 65 180.676 65C179.143 65 177.809 65.0167 176.676 65.05C176.576 64.55 176.526 64.1167 176.526 63.75C176.526 63.35 176.559 62.85 176.626 62.25L178.376 62.1C178.576 59.2 178.693 56.9 178.726 55.2C177.859 52.3333 175.526 47.1 171.726 39.5C170.659 37.4333 170.026 36.2 169.826 35.8L167.976 35.65C167.909 35.1167 167.876 34.6667 167.876 34.3C167.876 33.9 167.926 33.4167 168.026 32.85C169.193 32.8833 170.626 32.9 172.326 32.9C174.059 32.9 175.493 32.8833 176.626 32.85C176.726 33.35 176.776 33.8 176.776 34.2C176.776 34.5667 176.743 35.05 176.676 35.65L174.876 35.8C175.509 38.1667 176.559 40.95 178.026 44.15C179.493 47.35 180.426 49.4167 180.826 50.35H181.026C181.926 48.6167 182.876 46.3667 183.876 43.6C184.876 40.8 185.609 38.2 186.076 35.8L184.226 35.65ZM205.032 48.45C205.999 49.4167 207.149 49.9 208.482 49.9C209.849 49.9 210.949 49.4833 211.782 48.65C213.115 47.2833 213.782 45.25 213.782 42.55C213.782 37.5833 211.582 35.1 207.182 35.1C205.782 35.1 204.215 35.4667 202.482 36.2C202.249 38.8333 202.132 42.9333 202.132 48.5C202.132 54.0667 202.282 58.6 202.582 62.1L205.432 62.3C205.499 62.8333 205.532 63.3167 205.532 63.75C205.532 64.1833 205.482 64.6167 205.382 65.05C204.182 65.0167 202.615 65 200.682 65C198.782 65 197.315 65.0167 196.282 65.05C196.182 64.55 196.132 64.1167 196.132 63.75C196.132 63.35 196.165 62.85 196.232 62.25L197.982 62.1C198.249 58.5333 198.382 53.9833 198.382 48.45C198.382 42.8833 198.215 38.75 197.882 36.05L195.982 35.9C195.882 35.4333 195.832 34.9167 195.832 34.35C195.832 33.7833 195.849 33.3667 195.882 33.1C197.282 33.0333 199.199 32.8833 201.632 32.65C203.332 32.3833 205.199 32.25 207.232 32.25C211.165 32.25 213.965 33.15 215.632 34.95C217.299 36.7167 218.132 39.2167 218.132 42.45C218.132 45.65 217.282 48.25 215.582 50.25C213.915 52.25 211.365 53.25 207.932 53.25C206.599 53.25 205.282 53 203.982 52.5C203.982 51.6 204.099 50.7667 204.332 50C204.565 49.2333 204.799 48.7167 205.032 48.45ZM233.244 36.3C233.011 38.9 232.894 43.0833 232.894 48.85C232.894 54.5833 233.028 59 233.294 62.1L236.194 62.4C236.261 62.9333 236.294 63.3667 236.294 63.7C236.294 64 236.244 64.45 236.144 65.05C234.944 65.0167 233.211 65 230.944 65C228.711 65 227.078 65.0167 226.044 65.05C225.944 64.55 225.894 64.1333 225.894 63.8C225.894 63.4667 225.928 63 225.994 62.4L228.744 62.1C229.011 58.5333 229.144 54.0167 229.144 48.55C229.144 43.05 228.994 38.9667 228.694 36.3C227.394 36.3333 225.594 36.45 223.294 36.65L223.144 40.35C222.611 40.45 222.111 40.5 221.644 40.5C221.178 40.5 220.744 40.4833 220.344 40.45C220.244 37.7167 220.094 35.1833 219.894 32.85L220.144 32.6C222.611 32.9 226.561 33.05 231.994 33.05C237.428 33.05 240.828 32.9 242.194 32.6L242.444 32.85C242.211 35.4167 242.061 37.7833 241.994 39.95C241.594 39.9833 241.161 40 240.694 40C240.261 40 239.761 39.95 239.194 39.85L239.044 36.5C237.644 36.4333 235.711 36.3667 233.244 36.3ZM248.617 61.95C248.917 58.55 249.067 54.05 249.067 48.45C249.067 42.8167 248.9 38.6833 248.567 36.05L246.617 35.9C246.517 35.5 246.467 34.9833 246.467 34.35C246.467 33.7167 246.483 33.3 246.517 33.1C248.65 33.0667 250.55 32.9167 252.217 32.65C253.883 32.3833 255.65 32.25 257.517 32.25C260.883 32.25 263.433 33.0333 265.167 34.6C266.933 36.1333 267.817 38.4667 267.817 41.6C267.817 44.7333 266.75 47.1 264.617 48.7C268.183 50.1333 269.967 52.6833 269.967 56.35C269.967 59.45 269 61.8 267.067 63.4C265.133 64.9667 262.283 65.75 258.517 65.75C256.417 65.75 254.467 65.6167 252.667 65.35C249.5 65.1167 247.45 64.9667 246.517 64.9C246.483 64.7 246.467 64.3 246.467 63.7C246.467 63.1 246.517 62.5667 246.617 62.1L248.617 61.95ZM255.717 46.4C256.45 46.9 257.517 47.15 258.917 47.15C260.35 47.15 261.467 46.6833 262.267 45.75C263.067 44.7833 263.467 43.35 263.467 41.45C263.467 39.5167 262.933 37.9833 261.867 36.85C260.8 35.6833 259.283 35.1 257.317 35.1C256.083 35.1 254.717 35.4 253.217 36C252.95 38.7667 252.817 42.8 252.817 48.1C252.817 53.4 252.95 57.75 253.217 61.15C255.183 61.9167 256.967 62.3 258.567 62.3C263.267 62.3 265.617 60.3167 265.617 56.35C265.617 53.0167 264.067 50.9833 260.967 50.25C259.967 50.4167 258.983 50.5 258.017 50.5C257.083 50.5 255.967 50.25 254.667 49.75C254.667 48.2167 255.017 47.1 255.717 46.4ZM282.077 35.8C281.843 38.5 281.727 42.6833 281.727 48.35C281.727 54.0167 281.877 58.6 282.177 62.1L283.977 62.25C284.043 62.7833 284.077 63.25 284.077 63.65C284.077 64.0167 284.027 64.4833 283.927 65.05C282.76 65.0167 281.41 65 279.877 65C278.343 65 277.01 65.0167 275.877 65.05C275.777 64.55 275.727 64.1167 275.727 63.75C275.727 63.35 275.76 62.85 275.827 62.25L277.577 62.1C277.843 58.5 277.977 53.9167 277.977 48.35C277.977 42.75 277.827 38.5667 277.527 35.8L275.827 35.65C275.76 35.1167 275.727 34.6667 275.727 34.3C275.727 33.9 275.777 33.4167 275.877 32.85C277.043 32.8833 278.393 32.9 279.927 32.9C281.46 32.9 282.793 32.8833 283.927 32.85C284.027 33.35 284.077 33.8 284.077 34.2C284.077 34.5667 284.043 35.05 283.977 35.65L282.077 35.8ZM301.946 36.3C301.712 38.9 301.596 43.0833 301.596 48.85C301.596 54.5833 301.729 59 301.996 62.1L304.896 62.4C304.962 62.9333 304.996 63.3667 304.996 63.7C304.996 64 304.946 64.45 304.846 65.05C303.646 65.0167 301.912 65 299.646 65C297.412 65 295.779 65.0167 294.746 65.05C294.646 64.55 294.596 64.1333 294.596 63.8C294.596 63.4667 294.629 63 294.696 62.4L297.446 62.1C297.712 58.5333 297.846 54.0167 297.846 48.55C297.846 43.05 297.696 38.9667 297.396 36.3C296.096 36.3333 294.296 36.45 291.996 36.65L291.846 40.35C291.312 40.45 290.812 40.5 290.346 40.5C289.879 40.5 289.446 40.4833 289.046 40.45C288.946 37.7167 288.796 35.1833 288.596 32.85L288.846 32.6C291.312 32.9 295.262 33.05 300.696 33.05C306.129 33.05 309.529 32.9 310.896 32.6L311.146 32.85C310.912 35.4167 310.762 37.7833 310.696 39.95C310.296 39.9833 309.862 40 309.396 40C308.962 40 308.462 39.95 307.896 39.85L307.746 36.5C306.346 36.4333 304.412 36.3667 301.946 36.3ZM316.118 55.25C317.151 55.25 317.951 55.5667 318.518 56.2C319.085 56.8333 319.368 57.6167 319.368 58.55C319.368 59.45 319.218 60.1833 318.918 60.75C320.385 61.95 322.068 62.55 323.968 62.55C325.901 62.55 327.351 62.1167 328.318 61.25C329.285 60.35 329.768 59.1333 329.768 57.6C329.768 56.0667 329.235 54.75 328.168 53.65C327.101 52.55 325.801 51.6333 324.268 50.9C322.768 50.1667 321.268 49.4 319.768 48.6C318.268 47.7667 316.985 46.6667 315.918 45.3C314.851 43.9333 314.318 42.3167 314.318 40.45C314.318 37.8833 315.168 35.8833 316.868 34.45C318.568 32.9833 320.751 32.25 323.418 32.25C326.085 32.25 328.385 32.8833 330.318 34.15C332.285 35.4167 333.268 37.1333 333.268 39.3C333.268 41.4333 332.401 42.5 330.668 42.5C329.635 42.5 328.835 42.1833 328.268 41.55C327.701 40.9167 327.418 40.1 327.418 39.1C327.418 38.1 327.618 37.3333 328.018 36.8C326.851 35.7333 325.418 35.2 323.718 35.2C322.018 35.2 320.735 35.6333 319.868 36.5C319.035 37.3667 318.618 38.45 318.618 39.75C318.618 41.05 319.001 42.1667 319.768 43.1C320.535 44 321.485 44.75 322.618 45.35C323.751 45.9167 324.985 46.5833 326.318 47.35C327.651 48.0833 328.885 48.8167 330.018 49.55C331.151 50.2833 332.101 51.2833 332.868 52.55C333.635 53.7833 334.018 55.2 334.018 56.8C334.018 59.4333 333.101 61.5833 331.268 63.25C329.468 64.9167 327.151 65.75 324.318 65.75C321.485 65.75 318.968 65.1 316.768 63.8C314.601 62.4667 313.518 60.6167 313.518 58.25C313.518 56.25 314.385 55.25 316.118 55.25Z" fill="white"/>
</svg>
